<svg xmlns="http://www.w3.org/2000/svg" width="1920" height="712.327" viewBox="0 0 1920 712.327">
  <path id="Background_Waves" data-name="Background Waves" d="M1674.639,712.327h-.016a952.553,952.553,0,0,1-101.277-5.207c-32.277-3.47-61.665-8.557-87.347-15.12a1954.944,1954.944,0,0,0-231.238-47.143c-82.028-11.587-162.469-17.462-239.087-17.462C895.48,627.394,786.58,641.729,692,670a1076.093,1076.093,0,0,1-157.414,31.6,1257.551,1257.551,0,0,1-157.7,9.878c-29.871,0-59.667-1.069-88.561-3.181-28.27-2.066-55.853-5.14-81.985-9.137-25.844-3.953-50.383-8.825-72.934-14.48A515.82,515.82,0,0,1,72,665.472V0H1992V655a495.523,495.523,0,0,1-70.072,25.631,736.8,736.8,0,0,1-79.012,17.852c-26.81,4.6-55.008,8.112-83.81,10.441C1731.211,711.184,1702.792,712.327,1674.639,712.327Z" transform="translate(-72 0)" fill="#ffe9e9"/>
</svg>
