<svg xmlns="http://www.w3.org/2000/svg" xmlns:xlink="http://www.w3.org/1999/xlink" width="460.481" height="330.859" viewBox="0 0 460.481 330.859">
  <defs>
    <filter id="shadow" x="85.481" y="236.859" width="289" height="94" filterUnits="userSpaceOnUse">
      <feOffset dy="50" input="SourceAlpha"/>
      <feGaussianBlur stdDeviation="3" result="blur"/>
      <feFlood flood-color="#fecaca" flood-opacity="0.8"/>
      <feComposite operator="in" in2="blur"/>
      <feComposite in="SourceGraphic"/>
    </filter>
    <linearGradient id="linear-gradient" x1="0.532" x2="1" y2="1" gradientUnits="objectBoundingBox">
      <stop offset="0" stop-color="#dcecff"/>
      <stop offset="1" stop-color="#dfd5ff"/>
    </linearGradient>
    <linearGradient id="linear-gradient-2" x1="0.5" x2="0.5" y2="1" gradientUnits="objectBoundingBox">
      <stop offset="0" stop-color="#fff"/>
      <stop offset="0.602" stop-color="#f9f9f9"/>
      <stop offset="1" stop-color="#fff"/>
    </linearGradient>
  </defs>
  <g id="Desktop" transform="translate(-994.519 -191.141)">
    <g transform="matrix(1, 0, 0, 1, 994.52, 191.14)" filter="url(#shadow)">
      <ellipse id="shadow-2" data-name="shadow" cx="135.5" cy="17.5" rx="135.5" ry="17.5" transform="translate(94.48 236.86)" fill="#ff9b9b" opacity="0.3"/>
    </g>
    <g id="iMac" transform="translate(84.519 79.141)">
      <rect id="Rectangle_19" data-name="Rectangle 19" width="460.481" height="276.597" rx="15" transform="translate(910 112)" fill="#fff"/>
      <path id="Union_2" data-name="Union 2" d="M7.784,43.043C3.665,43.043,0,39.715,0,37.38l10.145-10.27h.022L16.73.039,88.444,0l6.514,27.109h.206l8.047,10.27c.064,1.326-3.448,5.664-7.567,5.664Z" transform="translate(1087.676 385.439)" fill="#d4d4d4"/>
      <path id="Path_14" data-name="Path 14" d="M15,0H436.209a15,15,0,0,1,15,15V252.326a15,15,0,0,1-15,15H15a15,15,0,0,1-15-15V15A15,15,0,0,1,15,0Z" transform="translate(914.636 116.636)" fill="url(#linear-gradient)"/>
      <path id="Union_1" data-name="Union 1" d="M7.491,43.043C3.354,43.043,0,41.151,0,38.816L9.863,27.109H9.9L16.509.039,88.678,0l6.555,27.109h.032l7.974,11.706c.064,1.326-3.354,4.228-7.492,4.228Z" transform="translate(1087.676 383.894)" fill="url(#linear-gradient-2)"/>
      <path id="Rectangle_20" data-name="Rectangle 20" d="M0,0H460a0,0,0,0,1,0,0V28a15,15,0,0,1-15,15H15A15,15,0,0,1,0,28V0A0,0,0,0,1,0,0Z" transform="translate(910.481 341.859)" fill="#fff"/>
    </g>
  </g>
</svg>
