<svg xmlns="http://www.w3.org/2000/svg" width="557.236" height="209.002" viewBox="0 0 557.236 209.002">
  <g id="peach-logo-full" transform="translate(-255 -337)">
    <g id="Layer_2" data-name="Layer 2" transform="translate(255 337.002)">
      <g id="Layer_1" data-name="Layer 1">
        <path id="Path_7" data-name="Path 7" d="M114.7,40.41A70.75,70.75,0,0,0,95.82,43l-1.95.56A2.73,2.73,0,0,0,94,48.78l1,.29a2.73,2.73,0,0,0,1.5,0,66.09,66.09,0,0,1,18.13-2.55c39.4,0,71.35,35,71.35,78.2s-32,78.19-71.35,78.19a66.06,66.06,0,0,1-18.88-2.77A70.84,70.84,0,0,1,60.36,175.4a2.72,2.72,0,0,0-3.69-.54l-.26.19a2.73,2.73,0,0,0-.6,3.92,77.94,77.94,0,0,0,29,23.46A71,71,0,0,0,114.7,209c42.48,0,76.92-37.74,76.92-84.3S157.18,40.41,114.7,40.41Z" fill="#ff3860"/>
        <path id="Path_8" data-name="Path 8" d="M106.8,47a71,71,0,0,0-29.86-6.59C34.44,40.41,0,78.16,0,124.72S34.44,209,76.94,209a70.75,70.75,0,0,0,18.88-2.56q1-.27,2-.57a2.73,2.73,0,0,0-.17-5.24l-1-.29a2.73,2.73,0,0,0-1.5,0,65.512,65.512,0,0,1-10.23,2.07,64.444,64.444,0,0,1-7.9.48c-39.42,0-71.37-35-71.37-78.19s32-78.2,71.37-78.2A66.06,66.06,0,0,1,95.9,49.27a70.81,70.81,0,0,1,35.26,24.49,2.72,2.72,0,0,0,3.68.54l.26-.19a2.74,2.74,0,0,0,.6-3.93A77.83,77.83,0,0,0,106.8,47Z" fill="#ff3860"/>
        <path id="Path_9" data-name="Path 9" d="M97.83,38C98,35.49,99,18.41,113.08,7.6A37.65,37.65,0,0,1,138.79.12c0,3.2-.22,15.61-9.22,26C117.43,40,99.8,38.23,97.83,38Z" fill="#ff3860"/>
      </g>
    </g>
    <path id="Path_10" data-name="Path 10" d="M22.2-61.687a3.206,3.206,0,0,1-2.365-.935,3.206,3.206,0,0,1-.935-2.365v-79.321a3.163,3.163,0,0,1,.935-2.42,3.314,3.314,0,0,1,2.365-.88h22a28.4,28.4,0,0,1,14.247,3.521,25.346,25.346,0,0,1,9.736,9.736,28.4,28.4,0,0,1,3.521,14.247,28.71,28.71,0,0,1-3.521,14.3,25.239,25.239,0,0,1-9.736,9.791A28.4,28.4,0,0,1,44.2-92.491H25.5v27.5a3.314,3.314,0,0,1-.88,2.365A3.163,3.163,0,0,1,22.2-61.687Zm3.3-37.405H44.2a21.309,21.309,0,0,0,10.837-2.7,19.634,19.634,0,0,0,7.371-7.426,21.613,21.613,0,0,0,2.7-10.892,21.31,21.31,0,0,0-2.7-10.837,19.751,19.751,0,0,0-7.371-7.371,21.309,21.309,0,0,0-10.837-2.7H25.5Zm83.282,37.955a30.355,30.355,0,0,1-15.457-3.906A27.924,27.924,0,0,1,82.709-75.879a32.07,32.07,0,0,1-3.851-15.842,33.549,33.549,0,0,1,3.631-15.9A27.715,27.715,0,0,1,92.5-118.455a27.169,27.169,0,0,1,14.632-3.961,27.28,27.28,0,0,1,14.412,3.8,26.373,26.373,0,0,1,9.791,10.451,32.338,32.338,0,0,1,3.52,15.347,2.942,2.942,0,0,1-.88,2.255,3.241,3.241,0,0,1-2.31.825H83.259v-5.721h50.167l-4.841,3.631a26.939,26.939,0,0,0-2.42-12.652,20.588,20.588,0,0,0-7.536-8.636,20.851,20.851,0,0,0-11.5-3.135,20.254,20.254,0,0,0-11.167,3.135,21.745,21.745,0,0,0-7.7,8.636,27.721,27.721,0,0,0-2.805,12.762,26.209,26.209,0,0,0,2.97,12.652,22,22,0,0,0,8.251,8.636,23.248,23.248,0,0,0,12.1,3.135,26.573,26.573,0,0,0,8.636-1.485,18.413,18.413,0,0,0,6.876-3.906,3.122,3.122,0,0,1,2.145-.935,2.938,2.938,0,0,1,2.145.715,3.023,3.023,0,0,1,1.265,2.2,2.741,2.741,0,0,1-1.045,2.2,27.9,27.9,0,0,1-9.186,5.281A31.288,31.288,0,0,1,108.783-61.137Zm65.679.11a31.021,31.021,0,0,1-15.842-4.016,29.457,29.457,0,0,1-10.947-11,30.888,30.888,0,0,1-4.016-15.677,30.479,30.479,0,0,1,4.071-15.732,30.426,30.426,0,0,1,11-11,30.267,30.267,0,0,1,15.622-4.071,31.1,31.1,0,0,1,15.787,4.016,29.337,29.337,0,0,1,11,11,31.1,31.1,0,0,1,4.016,15.787l-2.75,4.4a24.739,24.739,0,0,1-3.686,13.312,27,27,0,0,1-10.011,9.461A28.8,28.8,0,0,1,174.462-61.027Zm-.11-6.161a23.919,23.919,0,0,0,12.487-3.245,23.418,23.418,0,0,0,8.581-8.856,25.047,25.047,0,0,0,3.135-12.432,24.537,24.537,0,0,0-3.19-12.542,24.522,24.522,0,0,0-8.636-8.8,23.2,23.2,0,0,0-12.267-3.3,23.876,23.876,0,0,0-12.267,3.245,23.7,23.7,0,0,0-8.746,8.8,24.837,24.837,0,0,0-3.19,12.6,24.62,24.62,0,0,0,3.19,12.487,23.823,23.823,0,0,0,8.691,8.8A23.583,23.583,0,0,0,174.352-67.188Zm27.5,5.5a3.206,3.206,0,0,1-2.365-.935,3.206,3.206,0,0,1-.935-2.365V-85.12l2.09-6.6h4.511v26.734a3.314,3.314,0,0,1-.88,2.365A3.163,3.163,0,0,1,201.856-61.687Zm46.427.66A29.185,29.185,0,0,1,232.935-65.1a29.545,29.545,0,0,1-10.672-11,31.264,31.264,0,0,1-3.906-15.622,33.394,33.394,0,0,1,3.631-15.732A28.024,28.024,0,0,1,232-118.4a26.888,26.888,0,0,1,14.632-4.016,30.306,30.306,0,0,1,12.872,2.7,27.31,27.31,0,0,1,10.121,8.2,2.785,2.785,0,0,1,.66,2.31,2.941,2.941,0,0,1-1.43,1.98,2.832,2.832,0,0,1-2.2.605,3.191,3.191,0,0,1-2.09-1.265,22.415,22.415,0,0,0-17.933-8.361,20.384,20.384,0,0,0-11.387,3.19,21.351,21.351,0,0,0-7.591,8.691,28.4,28.4,0,0,0-2.7,12.652,26.062,26.062,0,0,0,2.97,12.487,22.827,22.827,0,0,0,8.2,8.8,22.564,22.564,0,0,0,12.157,3.245,27.128,27.128,0,0,0,8.526-1.32,18.77,18.77,0,0,0,6.986-4.071,3.77,3.77,0,0,1,2.2-.99,2.509,2.509,0,0,1,2.09.77,3.167,3.167,0,0,1,1.155,2.255,2.6,2.6,0,0,1-.935,2.145Q260.274-61.027,248.283-61.027Zm90.653-.66a3.114,3.114,0,0,1-2.365-.99,3.259,3.259,0,0,1-.935-2.31V-94.581q0-7.261-2.805-11.992a17.838,17.838,0,0,0-7.646-7.1,24.229,24.229,0,0,0-10.782-2.365,23.746,23.746,0,0,0-10.561,2.31,19.726,19.726,0,0,0-7.536,6.216,14.8,14.8,0,0,0-2.805,8.856H288a24.56,24.56,0,0,1,4.071-12.267,25.975,25.975,0,0,1,9.461-8.581,26.741,26.741,0,0,1,12.872-3.135,30.665,30.665,0,0,1,14.3,3.245,24.107,24.107,0,0,1,9.9,9.461q3.631,6.216,3.63,15.347v29.594a3.166,3.166,0,0,1-.99,2.31A3.166,3.166,0,0,1,338.935-61.687Zm-48.737,0a3.206,3.206,0,0,1-2.365-.935,3.206,3.206,0,0,1-.935-2.365v-53.578a3.206,3.206,0,0,1,.935-2.365,3.206,3.206,0,0,1,2.365-.935,3.163,3.163,0,0,1,2.42.935,3.314,3.314,0,0,1,.88,2.365v53.578a3.314,3.314,0,0,1-.88,2.365A3.163,3.163,0,0,1,290.2-61.687Zm0-26.4a3.206,3.206,0,0,1-2.365-.935,3.206,3.206,0,0,1-.935-2.365v-52.917a3.163,3.163,0,0,1,.935-2.42,3.315,3.315,0,0,1,2.365-.88,3.271,3.271,0,0,1,2.42.88,3.271,3.271,0,0,1,.88,2.42v52.917a3.314,3.314,0,0,1-.88,2.365A3.163,3.163,0,0,1,290.2-88.091Z" transform="translate(470 563.161)" fill="#ff3860"/>
  </g>
</svg>
