<svg xmlns="http://www.w3.org/2000/svg" width="66.862" height="74.409" viewBox="0 0 66.862 74.409">
  <g id="Layer_2" data-name="Layer 2" transform="translate(0 1.484)">
    <g id="Layer_1" data-name="Layer 1" transform="translate(0 -0.002)">
      <path id="Path_4" data-name="Path 4" d="M75.984,40.41a24.687,24.687,0,0,0-6.588.9l-.68.2a.953.953,0,0,0,.045,1.821l.349.1a.953.953,0,0,0,.523,0,23.061,23.061,0,0,1,6.326-.89c13.748,0,24.9,12.213,24.9,27.286S89.69,97.111,75.96,97.111a23.05,23.05,0,0,1-6.588-.967,24.718,24.718,0,0,1-12.349-8.633.949.949,0,0,0-1.288-.188l-.091.066a.953.953,0,0,0-.209,1.368,27.2,27.2,0,0,0,10.119,8.186,24.774,24.774,0,0,0,10.43,2.292c14.823,0,26.84-13.169,26.84-29.415S90.807,40.41,75.984,40.41Z" transform="translate(-35.962 -26.309)" fill="#ff3860"/>
      <path id="Path_5" data-name="Path 5" d="M37.266,42.709a24.774,24.774,0,0,0-10.419-2.3C12.017,40.41,0,53.582,0,69.828S12.017,99.236,26.847,99.236a24.687,24.687,0,0,0,6.588-.893q.349-.094.7-.2a.953.953,0,0,0-.059-1.828l-.349-.1a.952.952,0,0,0-.523,0,22.86,22.86,0,0,1-3.57.722,22.487,22.487,0,0,1-2.757.167c-13.755,0-24.9-12.213-24.9-27.283s11.166-27.286,24.9-27.286a23.051,23.051,0,0,1,6.588.967,24.708,24.708,0,0,1,12.3,8.545.949.949,0,0,0,1.284.188l.091-.066A.956.956,0,0,0,47.35,50.8a27.157,27.157,0,0,0-10.084-8.088Z" transform="translate(0 -26.309)" fill="#ff3860"/>
      <path id="Path_6" data-name="Path 6" d="M97.83,13.258c.059-.876.408-6.836,5.321-10.607a13.137,13.137,0,0,1,8.971-2.61,13.986,13.986,0,0,1-3.217,9.072C104.669,13.956,98.517,13.338,97.83,13.258Z" transform="matrix(0.998, -0.07, 0.07, 0.998, -64.903, 6.341)" fill="#ff3860"/>
    </g>
  </g>
</svg>
