<svg xmlns="http://www.w3.org/2000/svg" viewBox="0 0 191.62 209.02"><defs><style>.cls-1{fill:#231f20;}</style></defs><title>Asset 1logo</title><g id="Layer_2" data-name="Layer 2"><g id="Layer_1-2" data-name="Layer 1"><path class="cls-1" d="M114.7,40.41A70.75,70.75,0,0,0,95.82,43l-1.95.56A2.73,2.73,0,0,0,94,48.78l1,.29a2.73,2.73,0,0,0,1.5,0,66.09,66.09,0,0,1,18.13-2.55c39.4,0,71.35,35,71.35,78.2s-32,78.19-71.35,78.19a66.06,66.06,0,0,1-18.88-2.77A70.84,70.84,0,0,1,60.36,175.4a2.72,2.72,0,0,0-3.69-.54l-.26.19a2.73,2.73,0,0,0-.6,3.92,77.94,77.94,0,0,0,29,23.46A71,71,0,0,0,114.7,209c42.48,0,76.92-37.74,76.92-84.3S157.18,40.41,114.7,40.41Z"/><path class="cls-1" d="M106.8,47a71,71,0,0,0-29.86-6.59C34.44,40.41,0,78.16,0,124.72S34.44,209,76.94,209a70.75,70.75,0,0,0,18.88-2.56q1-.27,2-.57a2.73,2.73,0,0,0-.17-5.24l-1-.29a2.73,2.73,0,0,0-1.5,0,65.51,65.51,0,0,1-10.23,2.07,64.45,64.45,0,0,1-7.9.48c-39.42,0-71.37-35-71.37-78.19s32-78.2,71.37-78.2a66.06,66.06,0,0,1,18.88,2.77,70.81,70.81,0,0,1,35.26,24.49,2.72,2.72,0,0,0,3.68.54l.26-.19a2.74,2.74,0,0,0,.6-3.93A77.83,77.83,0,0,0,106.8,47Z"/><path class="cls-1" d="M97.83,38C98,35.49,99,18.41,113.08,7.6A37.65,37.65,0,0,1,138.79.12c0,3.2-.22,15.61-9.22,26C117.43,40,99.8,38.23,97.83,38Z"/></g></g></svg>