<svg xmlns="http://www.w3.org/2000/svg" width="440" height="261" viewBox="0 0 440 261">
  <g id="responsive" transform="translate(-457 -312)">
    <g id="Screen-size" transform="translate(218 65)">
      <rect id="Rectangle_1" data-name="Rectangle 1" width="440" height="261" rx="6" transform="translate(239 247)" fill="#ff3860"/>
    </g>
    <g id="Tablet-size" transform="translate(7 76)">
      <path id="Rectangle_2" data-name="Rectangle 2" d="M6,0H162a0,0,0,0,1,0,0V216a6,6,0,0,1-6,6H6a6,6,0,0,1-6-6V6A6,6,0,0,1,6,0Z" transform="translate(728 275)" fill="#fe7691"/>
    </g>
    <g id="Mobile-size" transform="translate(-123 65)">
      <path id="Rectangle_3" data-name="Rectangle 3" d="M6,0H81a0,0,0,0,1,0,0V150a6,6,0,0,1-6,6H6a6,6,0,0,1-6-6V6A6,6,0,0,1,6,0Z" transform="translate(939 352)" fill="#e94163"/>
    </g>
  </g>
</svg>
