<svg xmlns="http://www.w3.org/2000/svg" viewBox="0 0 157.26 128.09"><defs><style>.cls-1{fill:#a8b0da;}.cls-2{fill:#7e84a4;}</style></defs><title>Asset 3</title><g id="Layer_2" data-name="Layer 2"><g id="Layer_1-2" data-name="Layer 1"><path class="cls-1" d="M157.26,57.07c0,18.81-12.68,34.06-28.31,34.06-8,0-15.19-4-20.33-10.36h14.11A22.22,22.22,0,0,0,129,79.71a24,24,0,0,0,0-45.29,21.85,21.85,0,0,0-6.22-1.05H108.62C113.76,27,121,23,129,23,144.58,23,157.26,38.25,157.26,57.07Z"/><path class="cls-1" d="M122.73,80.77A22.22,22.22,0,0,0,129,79.71V91.13H93V80.77h29.69Z"/><path class="cls-1" d="M129,23V34.42a21.85,21.85,0,0,0-6.22-1.05H93V23Z"/><path class="cls-1" d="M122.73,33.36h0Z"/><path class="cls-1" d="M122.17,80.77h0Z"/><path class="cls-2" d="M5.87,110.44H122a0,0,0,0,1,0,0v0a17.65,17.65,0,0,1-17.65,17.65H23.52A17.65,17.65,0,0,1,5.87,110.44v0A0,0,0,0,1,5.87,110.44Z"/><rect class="cls-1" width="127.85" height="117.35" rx="8.08" ry="8.08"/></g></g></svg>