<svg xmlns="http://www.w3.org/2000/svg" viewBox="0 0 647.8 384.13"><defs><style>.cls-1{fill:#43485d;}.cls-2{fill:#656c8b;}.cls-3{fill:#1c213c;}.cls-4{fill:#8690ba;}.cls-5{opacity:0.8;}.cls-6{font-size:70.1px;fill:#ff3860;font-family:Montserrat-ExtraBold, Montserrat ExtraBold;}.cls-7{letter-spacing:-0.02em;}.cls-8{letter-spacing:-0.01em;}.cls-9{letter-spacing:-0.01em;}.cls-10{letter-spacing:-0.01em;}.cls-11{letter-spacing:0em;}</style></defs><title>Asset 2</title><g id="Layer_2" data-name="Layer 2"><g id="Layer_1-2" data-name="Layer 1"><path class="cls-1" d="M34.7,4.18H613.1A14.86,14.86,0,0,1,628,19V365.53a.75.75,0,0,1-.75.75H20.59a.75.75,0,0,1-.75-.75V19A14.86,14.86,0,0,1,34.7,4.18Z"/><path class="cls-2" d="M33.35,4.18H614.45A13.51,13.51,0,0,1,628,17.69V22a0,0,0,0,1,0,0H19.84a0,0,0,0,1,0,0V17.69A13.51,13.51,0,0,1,33.35,4.18Z"/><circle class="cls-3" cx="35.4" cy="14.08" r="3.33"/><circle class="cls-3" cx="44.06" cy="14.08" r="3.33"/><circle class="cls-3" cx="52.73" cy="14.08" r="3.33"/><path class="cls-4" d="M613.1,0H34.7A19.48,19.48,0,0,0,15.22,19.48v347h4.62V20.8c0-8.57,7-16.45,15.52-16.45H612.44C621,4.35,628,12.23,628,20.8V366.46h4.62v-347A19.48,19.48,0,0,0,613.1,0Z"/><path class="cls-4" d="M3.2,366.46H644.61a3.2,3.2,0,0,1,3.2,3.2v6.41a0,0,0,0,1,0,0H0a0,0,0,0,1,0,0v-6.41A3.2,3.2,0,0,1,3.2,366.46Z"/><path class="cls-2" d="M0,376.06H647.8a0,0,0,0,1,0,0v3.23a4.84,4.84,0,0,1-4.84,4.84H4.84A4.84,4.84,0,0,1,0,379.29v-3.23a0,0,0,0,1,0,0Z"/><path class="cls-2" d="M283.62,366.46h80.55a0,0,0,0,1,0,0v1.78a2.67,2.67,0,0,1-2.67,2.67H286.3a2.67,2.67,0,0,1-2.67-2.67v-1.78A0,0,0,0,1,283.62,366.46Z"/><g class="cls-5"><text class="cls-6" transform="translate(52.73 141.34)"><tspan class="cls-7">C</tspan><tspan x="50.68" y="0">ODING</tspan></text><text class="cls-6" transform="translate(52.73 211.75)">DESIGN</text><text class="cls-6" transform="translate(52.73 282.21)">D<tspan class="cls-8" x="57.9" y="0">E</tspan><tspan class="cls-9" x="104.3" y="0">V</tspan><tspan x="156.94" y="0">E</tspan><tspan class="cls-10" x="204.05" y="0">L</tspan><tspan class="cls-11" x="246.04" y="0">OP</tspan></text></g></g></g></svg>