<svg xmlns="http://www.w3.org/2000/svg" viewBox="0 0 156.37 308.4"><defs><style>.cls-1{fill:#fff;}</style></defs><title>Asset 3_mockup</title><g id="Layer_2" data-name="Layer 2"><g id="Layer_1-2" data-name="Layer 1"><path class="cls-1" d="M139,0H17.37A17.37,17.37,0,0,0,0,17.37V291A17.37,17.37,0,0,0,17.37,308.4H139A17.38,17.38,0,0,0,156.37,291V17.37A17.38,17.38,0,0,0,139,0ZM90.71,10.14a1.08,1.08,0,0,1-1.08,1.08H66.74a1.08,1.08,0,0,1-1.08-1.08A1.06,1.06,0,0,1,66,9.37a1,1,0,0,1,.76-.32H89.63A1.08,1.08,0,0,1,90.71,10.14ZM151.46,289A13.93,13.93,0,0,1,137.53,303H18.84A13.93,13.93,0,0,1,4.91,289V19.37A13.94,13.94,0,0,1,18.73,5.43H40.54a1.81,1.81,0,0,1,1.81,1.8v2a8.87,8.87,0,0,0,8.87,8.87h53.93A8.87,8.87,0,0,0,114,9.23v-2a1.81,1.81,0,0,1,1.81-1.8h21.82a13.94,13.94,0,0,1,13.81,13.94Z"/></g></g></svg>