<svg xmlns="http://www.w3.org/2000/svg" viewBox="0 0 714.55 423.71"><defs><style>.cls-1{fill:#e6e7e8;}.cls-2{fill:#fff;}.cls-3{fill:#d1d3d4;}</style></defs><title>Screen</title><g id="Layer_2" data-name="Layer 2"><g id="Layer_1-2" data-name="Layer 1"><path class="cls-1" d="M676.28,0h-638A21.49,21.49,0,0,0,16.79,21.49V404.22h5.1V22.94C21.89,13.49,29.55,4.8,39,4.8H675.55c9.45,0,17.12,8.69,17.12,18.14V404.22h5.09V21.49A21.48,21.48,0,0,0,676.28,0Z"/><path class="cls-2" d="M3.2,404.22H711.36a3.2,3.2,0,0,1,3.2,3.2v7.4a0,0,0,0,1,0,0H0a0,0,0,0,1,0,0v-7.4A3.2,3.2,0,0,1,3.2,404.22Z"/><path class="cls-3" d="M0,414.81H714.55a0,0,0,0,1,0,0v0a8.9,8.9,0,0,1-8.9,8.9H8.9a8.9,8.9,0,0,1-8.9-8.9v0a0,0,0,0,1,0,0Z"/><path class="cls-3" d="M312.85,404.22H401.7a0,0,0,0,1,0,0v0a4.92,4.92,0,0,1-4.92,4.92h-79a4.92,4.92,0,0,1-4.92-4.92v0a0,0,0,0,1,0,0Z"/></g></g></svg>