<svg xmlns="http://www.w3.org/2000/svg" viewBox="0 0 326 443"><defs><style>.cls-1{fill:#fff;}</style></defs><title>Tablet</title><g id="Layer_2" data-name="Layer 2"><g id="Layer_1-2" data-name="Layer 1"><path class="cls-1" d="M307.73,0H18.27A18.27,18.27,0,0,0,0,18.27V424.73A18.27,18.27,0,0,0,18.27,443H307.73A18.27,18.27,0,0,0,326,424.73V18.27A18.27,18.27,0,0,0,307.73,0ZM312,417.45a12.33,12.33,0,0,1-12.33,12.33H26.33A12.33,12.33,0,0,1,14,417.45V25.55A12.33,12.33,0,0,1,26.33,13.22H299.67A12.33,12.33,0,0,1,312,25.55Z"/></g></g></svg>